<svg id="_x31_" enable-background="new 0 0 24 24" height="512" viewBox="0 0 24 24" width="512" xmlns="http://www.w3.org/2000/svg">
    <path d="m17.5 24c-3.584 0-6.5-2.916-6.5-6.5s2.916-6.5 6.5-6.5 6.5 2.916 6.5 6.5-2.916 6.5-6.5 6.5zm0-12c-3.033 0-5.5 2.468-5.5 5.5s2.467 5.5 5.5 5.5 5.5-2.468 5.5-5.5-2.467-5.5-5.5-5.5z" fill="#fff"/>
    <path d="m16.5 20c-.132 0-.26-.053-.354-.146l-2-2c-.195-.195-.195-.512 0-.707s.512-.195.707 0l1.622 1.622 3.148-3.598c.182-.209.498-.229.706-.047s.229.497.047.705l-3.5 4c-.091.104-.222.166-.36.171-.005 0-.011 0-.016 0z" fill="#fff"/>
    <path d="m9.5 21h-7c-1.378 0-2.5-1.121-2.5-2.5v-13c0-1.379 1.122-2.5 2.5-2.5h2c.276 0 .5.224.5.5s-.224.5-.5.5h-2c-.827 0-1.5.673-1.5 1.5v13c0 .827.673 1.5 1.5 1.5h7c.276 0 .5.224.5.5s-.224.5-.5.5z" fill="#fff"/>
    <path d="m16.5 9c-.276 0-.5-.224-.5-.5v-3c0-.827-.673-1.5-1.5-1.5h-2c-.276 0-.5-.224-.5-.5s.224-.5.5-.5h2c1.378 0 2.5 1.121 2.5 2.5v3c0 .276-.224.5-.5.5z" fill="#fff"/>
    <path d="m11.5 6h-6c-.827 0-1.5-.673-1.5-1.5v-2c0-.276.224-.5.5-.5h1.55c.233-1.14 1.242-2 2.45-2s2.217.86 2.45 2h1.55c.276 0 .5.224.5.5v2c0 .827-.673 1.5-1.5 1.5zm-6.5-3v1.5c0 .275.224.5.5.5h6c.276 0 .5-.225.5-.5v-1.5h-1.5c-.276 0-.5-.224-.5-.5 0-.827-.673-1.5-1.5-1.5s-1.5.673-1.5 1.5c0 .276-.224.5-.5.5z" fill="#fff"/>
    <path d="m13.5 9h-10c-.276 0-.5-.224-.5-.5s.224-.5.5-.5h10c.276 0 .5.224.5.5s-.224.5-.5.5z" fill="#fff"/>
    <path d="m10.5 12h-7c-.276 0-.5-.224-.5-.5s.224-.5.5-.5h7c.276 0 .5.224.5.5s-.224.5-.5.5z" fill="#fff"/>
    <path d="m8.5 15h-5c-.276 0-.5-.224-.5-.5s.224-.5.5-.5h5c.276 0 .5.224.5.5s-.224.5-.5.5z" fill="#fff" />
</svg>